<mxfile host="app.diagrams.net" agent="Mozilla/5.0 (Windows NT 10.0; Win64; x64) AppleWebKit/537.36 (KHTML, like Gecko) Chrome/114.0.5735.289 Safari/537.36" version="26.1.1" pages="4">
  <diagram name="Page-1" id="e3a06f82-3646-2815-327d-82caf3d4e204">
    <mxGraphModel dx="996" dy="503" grid="1" gridSize="10" guides="1" tooltips="1" connect="1" arrows="1" fold="1" page="1" pageScale="1.5" pageWidth="1169" pageHeight="826" background="none" math="0" shadow="0">
      <root>
        <mxCell id="0" style=";html=1;" />
        <mxCell id="1" style=";html=1;" parent="0" />
        <mxCell id="6a7d8f32e03d9370-61" value="Outside Networks" style="whiteSpace=wrap;html=1;fillColor=#f8cecc;fontSize=14;strokeColor=none;verticalAlign=top;" parent="1" vertex="1">
          <mxGeometry x="1084" y="296" width="493" height="360" as="geometry" />
        </mxCell>
        <mxCell id="6a7d8f32e03d9370-60" value="Enterprise cloud" style="whiteSpace=wrap;html=1;fillColor=#d5e8d4;fontSize=14;strokeColor=none;verticalAlign=top;" parent="1" vertex="1">
          <mxGeometry x="937" y="764" width="602" height="374" as="geometry" />
        </mxCell>
        <mxCell id="6a7d8f32e03d9370-59" value="Citrix XenApp Server Farm&lt;div&gt;with firewalls&lt;/div&gt;" style="whiteSpace=wrap;html=1;fillColor=#EDEDED;fontSize=14;strokeColor=none;verticalAlign=top;" parent="1" vertex="1">
          <mxGeometry x="599" y="98" width="280" height="1010" as="geometry" />
        </mxCell>
        <mxCell id="6a7d8f32e03d9370-58" value="Residential Private Networks" style="whiteSpace=wrap;html=1;fillColor=#dae8fc;fontSize=14;strokeColor=none;verticalAlign=top;" parent="1" vertex="1">
          <mxGeometry x="177" y="863" width="310" height="318" as="geometry" />
        </mxCell>
        <mxCell id="6a7d8f32e03d9370-57" value="Enterprise Networks" style="whiteSpace=wrap;html=1;fillColor=#FFD470;gradientColor=none;fontSize=14;strokeColor=none;verticalAlign=top;" parent="1" vertex="1">
          <mxGeometry x="179" y="98" width="308" height="680" as="geometry" />
        </mxCell>
        <mxCell id="6a7d8f32e03d9370-36" style="edgeStyle=none;rounded=0;html=1;startSize=10;endSize=10;jettySize=auto;orthogonalLoop=1;fontSize=14;endArrow=none;endFill=0;strokeWidth=2;" parent="1" source="6a7d8f32e03d9370-1" target="6a7d8f32e03d9370-14" edge="1">
          <mxGeometry relative="1" as="geometry" />
        </mxCell>
        <mxCell id="6a7d8f32e03d9370-1" value="Client" style="verticalLabelPosition=bottom;aspect=fixed;html=1;verticalAlign=top;strokeColor=none;shape=mxgraph.citrix.laptop_2;fillColor=#66B2FF;gradientColor=#0066CC;fontSize=14;" parent="1" vertex="1">
          <mxGeometry x="350.4999999999999" y="927" width="116" height="86.5" as="geometry" />
        </mxCell>
        <mxCell id="6a7d8f32e03d9370-35" style="edgeStyle=none;rounded=0;html=1;startSize=10;endSize=10;jettySize=auto;orthogonalLoop=1;fontSize=14;endArrow=none;endFill=0;strokeWidth=2;" parent="1" source="6a7d8f32e03d9370-2" target="6a7d8f32e03d9370-9" edge="1">
          <mxGeometry relative="1" as="geometry" />
        </mxCell>
        <mxCell id="6a7d8f32e03d9370-2" value="Client" style="verticalLabelPosition=bottom;aspect=fixed;html=1;verticalAlign=top;strokeColor=none;shape=mxgraph.citrix.laptop_2;fillColor=#66B2FF;gradientColor=#0066CC;fontSize=14;" parent="1" vertex="1">
          <mxGeometry x="352.4999999999999" y="649" width="116" height="86.5" as="geometry" />
        </mxCell>
        <mxCell id="6a7d8f32e03d9370-34" style="edgeStyle=none;rounded=0;html=1;startSize=10;endSize=10;jettySize=auto;orthogonalLoop=1;fontSize=14;endArrow=none;endFill=0;strokeWidth=2;" parent="1" source="6a7d8f32e03d9370-3" target="6a7d8f32e03d9370-10" edge="1">
          <mxGeometry relative="1" as="geometry" />
        </mxCell>
        <mxCell id="6a7d8f32e03d9370-3" value="client" style="verticalLabelPosition=bottom;aspect=fixed;html=1;verticalAlign=top;strokeColor=none;shape=mxgraph.citrix.desktop;fillColor=#66B2FF;gradientColor=#0066CC;fontSize=14;" parent="1" vertex="1">
          <mxGeometry x="365.99999999999994" y="483.99999999999994" width="89" height="98" as="geometry" />
        </mxCell>
        <mxCell id="6a7d8f32e03d9370-33" style="edgeStyle=none;rounded=0;html=1;startSize=10;endSize=10;jettySize=auto;orthogonalLoop=1;fontSize=14;endArrow=none;endFill=0;strokeWidth=2;" parent="1" source="6a7d8f32e03d9370-4" target="6a7d8f32e03d9370-11" edge="1">
          <mxGeometry relative="1" as="geometry" />
        </mxCell>
        <mxCell id="6a7d8f32e03d9370-4" value="Client" style="verticalLabelPosition=bottom;aspect=fixed;html=1;verticalAlign=top;strokeColor=none;shape=mxgraph.citrix.desktop;fillColor=#66B2FF;gradientColor=#0066CC;fontSize=14;" parent="1" vertex="1">
          <mxGeometry x="365.99999999999994" y="320.00000000000006" width="89" height="98" as="geometry" />
        </mxCell>
        <mxCell id="6a7d8f32e03d9370-32" style="edgeStyle=none;rounded=0;html=1;startSize=10;endSize=10;jettySize=auto;orthogonalLoop=1;fontSize=14;endArrow=none;endFill=0;strokeWidth=2;" parent="1" source="6a7d8f32e03d9370-5" target="6a7d8f32e03d9370-12" edge="1">
          <mxGeometry relative="1" as="geometry" />
        </mxCell>
        <mxCell id="6a7d8f32e03d9370-5" value="Client" style="verticalLabelPosition=bottom;aspect=fixed;html=1;verticalAlign=top;strokeColor=none;shape=mxgraph.citrix.desktop;fillColor=#66B2FF;gradientColor=#0066CC;fontSize=14;" parent="1" vertex="1">
          <mxGeometry x="362.00000000000006" y="156.00000000000006" width="89" height="98" as="geometry" />
        </mxCell>
        <mxCell id="6a7d8f32e03d9370-37" style="edgeStyle=none;rounded=0;html=1;startSize=10;endSize=10;jettySize=auto;orthogonalLoop=1;fontSize=14;endArrow=none;endFill=0;strokeWidth=2;" parent="1" source="6a7d8f32e03d9370-6" target="6a7d8f32e03d9370-14" edge="1">
          <mxGeometry relative="1" as="geometry" />
        </mxCell>
        <mxCell id="6a7d8f32e03d9370-6" value="Client" style="verticalLabelPosition=bottom;aspect=fixed;html=1;verticalAlign=top;strokeColor=none;shape=mxgraph.citrix.pda;fillColor=#66B2FF;gradientColor=#0066CC;fontSize=14;" parent="1" vertex="1">
          <mxGeometry x="393.50000000000006" y="1065" width="30" height="61" as="geometry" />
        </mxCell>
        <mxCell id="6a7d8f32e03d9370-39" style="edgeStyle=none;rounded=0;html=1;startSize=10;endSize=10;jettySize=auto;orthogonalLoop=1;fontSize=14;endArrow=none;endFill=0;strokeWidth=2;" parent="1" source="6a7d8f32e03d9370-8" target="6a7d8f32e03d9370-21" edge="1">
          <mxGeometry relative="1" as="geometry">
            <mxPoint x="737" y="846" as="targetPoint" />
          </mxGeometry>
        </mxCell>
        <mxCell id="6a7d8f32e03d9370-8" value="" style="verticalLabelPosition=bottom;aspect=fixed;html=1;verticalAlign=top;strokeColor=none;shape=mxgraph.citrix.xenapp_server;fillColor=#66B2FF;gradientColor=#0066CC;fontSize=14;" parent="1" vertex="1">
          <mxGeometry x="636.9999999999999" y="813" width="76" height="89" as="geometry" />
        </mxCell>
        <mxCell id="6a7d8f32e03d9370-40" style="edgeStyle=none;rounded=0;html=1;startSize=10;endSize=10;jettySize=auto;orthogonalLoop=1;fontSize=14;endArrow=none;endFill=0;strokeWidth=2;" parent="1" source="6a7d8f32e03d9370-9" target="6a7d8f32e03d9370-20" edge="1">
          <mxGeometry relative="1" as="geometry" />
        </mxCell>
        <mxCell id="6a7d8f32e03d9370-9" value="" style="verticalLabelPosition=bottom;aspect=fixed;html=1;verticalAlign=top;strokeColor=none;shape=mxgraph.citrix.xenapp_server;fillColor=#66B2FF;gradientColor=#0066CC;fontSize=14;" parent="1" vertex="1">
          <mxGeometry x="637.0000000000001" y="649" width="76" height="89" as="geometry" />
        </mxCell>
        <mxCell id="6a7d8f32e03d9370-41" style="edgeStyle=none;rounded=0;html=1;startSize=10;endSize=10;jettySize=auto;orthogonalLoop=1;fontSize=14;endArrow=none;endFill=0;strokeWidth=2;" parent="1" source="6a7d8f32e03d9370-10" target="6a7d8f32e03d9370-19" edge="1">
          <mxGeometry relative="1" as="geometry" />
        </mxCell>
        <mxCell id="6a7d8f32e03d9370-10" value="" style="verticalLabelPosition=bottom;aspect=fixed;html=1;verticalAlign=top;strokeColor=none;shape=mxgraph.citrix.xenapp_server;fillColor=#66B2FF;gradientColor=#0066CC;fontSize=14;" parent="1" vertex="1">
          <mxGeometry x="636.9999999999999" y="484" width="76" height="89" as="geometry" />
        </mxCell>
        <mxCell id="6a7d8f32e03d9370-42" style="edgeStyle=none;rounded=0;html=1;startSize=10;endSize=10;jettySize=auto;orthogonalLoop=1;fontSize=14;endArrow=none;endFill=0;strokeWidth=2;" parent="1" source="6a7d8f32e03d9370-11" target="6a7d8f32e03d9370-18" edge="1">
          <mxGeometry relative="1" as="geometry" />
        </mxCell>
        <mxCell id="6a7d8f32e03d9370-11" value="" style="verticalLabelPosition=bottom;aspect=fixed;html=1;verticalAlign=top;strokeColor=none;shape=mxgraph.citrix.xenapp_server;fillColor=#66B2FF;gradientColor=#0066CC;fontSize=14;" parent="1" vertex="1">
          <mxGeometry x="636.9999999999999" y="320" width="76" height="89" as="geometry" />
        </mxCell>
        <mxCell id="6a7d8f32e03d9370-43" style="edgeStyle=none;rounded=0;html=1;startSize=10;endSize=10;jettySize=auto;orthogonalLoop=1;fontSize=14;endArrow=none;endFill=0;strokeWidth=2;" parent="1" source="6a7d8f32e03d9370-12" target="6a7d8f32e03d9370-17" edge="1">
          <mxGeometry relative="1" as="geometry" />
        </mxCell>
        <mxCell id="6a7d8f32e03d9370-12" value="" style="verticalLabelPosition=bottom;aspect=fixed;html=1;verticalAlign=top;strokeColor=none;shape=mxgraph.citrix.xenapp_server;fillColor=#66B2FF;gradientColor=#0066CC;fontSize=14;" parent="1" vertex="1">
          <mxGeometry x="637.0000000000001" y="156" width="76" height="89" as="geometry" />
        </mxCell>
        <mxCell id="6a7d8f32e03d9370-50" style="edgeStyle=none;rounded=0;html=1;startSize=10;endSize=10;jettySize=auto;orthogonalLoop=1;fontSize=14;endArrow=none;endFill=0;strokeWidth=2;" parent="1" source="6a7d8f32e03d9370-13" target="6a7d8f32e03d9370-16" edge="1">
          <mxGeometry relative="1" as="geometry" />
        </mxCell>
        <mxCell id="6a7d8f32e03d9370-51" style="edgeStyle=none;rounded=0;html=1;startSize=10;endSize=10;jettySize=auto;orthogonalLoop=1;fontSize=14;endArrow=none;endFill=0;strokeWidth=2;" parent="1" source="6a7d8f32e03d9370-13" target="6a7d8f32e03d9370-15" edge="1">
          <mxGeometry relative="1" as="geometry" />
        </mxCell>
        <mxCell id="6a7d8f32e03d9370-52" style="edgeStyle=none;rounded=0;html=1;startSize=10;endSize=10;jettySize=auto;orthogonalLoop=1;fontSize=14;endArrow=none;endFill=0;strokeWidth=2;" parent="1" source="6a7d8f32e03d9370-13" target="6a7d8f32e03d9370-26" edge="1">
          <mxGeometry relative="1" as="geometry" />
        </mxCell>
        <mxCell id="6a7d8f32e03d9370-56" style="edgeStyle=none;rounded=0;html=1;startSize=10;endSize=10;jettySize=auto;orthogonalLoop=1;fontSize=14;endArrow=none;endFill=0;strokeWidth=2;" parent="1" source="6a7d8f32e03d9370-13" target="6a7d8f32e03d9370-25" edge="1">
          <mxGeometry relative="1" as="geometry" />
        </mxCell>
        <mxCell id="6a7d8f32e03d9370-13" value="" style="verticalLabelPosition=bottom;aspect=fixed;html=1;verticalAlign=top;strokeColor=none;shape=mxgraph.citrix.router;fillColor=#66B2FF;gradientColor=#0066CC;fontSize=14;" parent="1" vertex="1">
          <mxGeometry x="973" y="587" width="55" height="36.5" as="geometry" />
        </mxCell>
        <mxCell id="6a7d8f32e03d9370-38" style="edgeStyle=none;rounded=0;html=1;startSize=10;endSize=10;jettySize=auto;orthogonalLoop=1;fontSize=14;endArrow=none;endFill=0;strokeWidth=2;" parent="1" source="6a7d8f32e03d9370-14" target="6a7d8f32e03d9370-8" edge="1">
          <mxGeometry relative="1" as="geometry" />
        </mxCell>
        <mxCell id="6a7d8f32e03d9370-14" value="" style="verticalLabelPosition=bottom;aspect=fixed;html=1;verticalAlign=top;strokeColor=none;shape=mxgraph.citrix.xenclient_synchronizer;fillColor=#CCCCCC;gradientColor=#000000;gradientDirection=south;fontSize=14;" parent="1" vertex="1">
          <mxGeometry x="636.9999999999999" y="976" width="76" height="91" as="geometry" />
        </mxCell>
        <mxCell id="6a7d8f32e03d9370-15" value="Web Server" style="verticalLabelPosition=top;aspect=fixed;html=1;verticalAlign=bottom;strokeColor=none;shape=mxgraph.citrix.cache_server;fillColor=#66B2FF;gradientColor=#0066CC;fontSize=14;labelPosition=center;align=center;" parent="1" vertex="1">
          <mxGeometry x="965" y="272" width="71" height="97.5" as="geometry" />
        </mxCell>
        <mxCell id="6a7d8f32e03d9370-16" value="DNS" style="verticalLabelPosition=bottom;aspect=fixed;html=1;verticalAlign=top;strokeColor=none;shape=mxgraph.citrix.chassis;fillColor=#66B2FF;gradientColor=#0066CC;fontSize=14;" parent="1" vertex="1">
          <mxGeometry x="1129" y="858" width="137.5" height="177.5" as="geometry" />
        </mxCell>
        <mxCell id="6a7d8f32e03d9370-44" style="edgeStyle=none;rounded=0;html=1;startSize=10;endSize=10;jettySize=auto;orthogonalLoop=1;fontSize=14;endArrow=none;endFill=0;strokeWidth=2;" parent="1" source="6a7d8f32e03d9370-17" target="6a7d8f32e03d9370-13" edge="1">
          <mxGeometry relative="1" as="geometry" />
        </mxCell>
        <mxCell id="6a7d8f32e03d9370-17" value="" style="verticalLabelPosition=bottom;aspect=fixed;html=1;verticalAlign=top;strokeColor=none;shape=mxgraph.citrix.firewall;fillColor=#66B2FF;gradientColor=#0066CC;fontSize=14;" parent="1" vertex="1">
          <mxGeometry x="759" y="156" width="75" height="93" as="geometry" />
        </mxCell>
        <mxCell id="6a7d8f32e03d9370-45" style="edgeStyle=none;rounded=0;html=1;startSize=10;endSize=10;jettySize=auto;orthogonalLoop=1;fontSize=14;endArrow=none;endFill=0;strokeWidth=2;" parent="1" source="6a7d8f32e03d9370-18" target="6a7d8f32e03d9370-13" edge="1">
          <mxGeometry relative="1" as="geometry" />
        </mxCell>
        <mxCell id="6a7d8f32e03d9370-18" value="" style="verticalLabelPosition=bottom;aspect=fixed;html=1;verticalAlign=top;strokeColor=none;shape=mxgraph.citrix.firewall;fillColor=#66B2FF;gradientColor=#0066CC;fontSize=14;" parent="1" vertex="1">
          <mxGeometry x="759" y="320" width="75" height="93" as="geometry" />
        </mxCell>
        <mxCell id="6a7d8f32e03d9370-46" style="edgeStyle=none;rounded=0;html=1;startSize=10;endSize=10;jettySize=auto;orthogonalLoop=1;fontSize=14;endArrow=none;endFill=0;strokeWidth=2;" parent="1" source="6a7d8f32e03d9370-19" target="6a7d8f32e03d9370-13" edge="1">
          <mxGeometry relative="1" as="geometry" />
        </mxCell>
        <mxCell id="6a7d8f32e03d9370-19" value="" style="verticalLabelPosition=bottom;aspect=fixed;html=1;verticalAlign=top;strokeColor=none;shape=mxgraph.citrix.firewall;fillColor=#66B2FF;gradientColor=#0066CC;fontSize=14;" parent="1" vertex="1">
          <mxGeometry x="759" y="484" width="75" height="93" as="geometry" />
        </mxCell>
        <mxCell id="6a7d8f32e03d9370-47" style="edgeStyle=none;rounded=0;html=1;startSize=10;endSize=10;jettySize=auto;orthogonalLoop=1;fontSize=14;endArrow=none;endFill=0;strokeWidth=2;" parent="1" source="6a7d8f32e03d9370-20" target="6a7d8f32e03d9370-13" edge="1">
          <mxGeometry relative="1" as="geometry" />
        </mxCell>
        <mxCell id="6a7d8f32e03d9370-20" value="" style="verticalLabelPosition=bottom;aspect=fixed;html=1;verticalAlign=top;strokeColor=none;shape=mxgraph.citrix.firewall;fillColor=#66B2FF;gradientColor=#0066CC;fontSize=14;" parent="1" vertex="1">
          <mxGeometry x="759" y="649" width="75" height="93" as="geometry" />
        </mxCell>
        <mxCell id="6a7d8f32e03d9370-48" style="edgeStyle=none;rounded=0;html=1;startSize=10;endSize=10;jettySize=auto;orthogonalLoop=1;fontSize=14;endArrow=none;endFill=0;strokeWidth=2;" parent="1" source="6a7d8f32e03d9370-21" target="6a7d8f32e03d9370-13" edge="1">
          <mxGeometry relative="1" as="geometry" />
        </mxCell>
        <mxCell id="6a7d8f32e03d9370-21" value="" style="verticalLabelPosition=bottom;aspect=fixed;html=1;verticalAlign=top;strokeColor=none;shape=mxgraph.citrix.firewall;fillColor=#66B2FF;gradientColor=#0066CC;fontSize=14;" parent="1" vertex="1">
          <mxGeometry x="759" y="813" width="75" height="93" as="geometry" />
        </mxCell>
        <mxCell id="6a7d8f32e03d9370-23" value="" style="verticalLabelPosition=bottom;aspect=fixed;html=1;verticalAlign=top;strokeColor=none;shape=mxgraph.citrix.home_office;fillColor=#66B2FF;gradientColor=#0066CC;fontSize=14;" parent="1" vertex="1">
          <mxGeometry x="207" y="955" width="80" height="55.5" as="geometry" />
        </mxCell>
        <mxCell id="6a7d8f32e03d9370-24" value="" style="verticalLabelPosition=bottom;aspect=fixed;html=1;verticalAlign=top;strokeColor=none;shape=mxgraph.citrix.hq_enterprise;fillColor=#66B2FF;gradientColor=#0066CC;fontSize=14;" parent="1" vertex="1">
          <mxGeometry x="227" y="252" width="92" height="88" as="geometry" />
        </mxCell>
        <mxCell id="6a7d8f32e03d9370-25" value="Secure Server" style="verticalLabelPosition=bottom;aspect=fixed;html=1;verticalAlign=top;strokeColor=none;shape=mxgraph.citrix.proxy_server;fillColor=#66B2FF;gradientColor=#0066CC;fontSize=14;" parent="1" vertex="1">
          <mxGeometry x="1409" y="800" width="76.5" height="90" as="geometry" />
        </mxCell>
        <mxCell id="6a7d8f32e03d9370-53" style="edgeStyle=none;rounded=0;html=1;startSize=10;endSize=10;jettySize=auto;orthogonalLoop=1;fontSize=14;endArrow=none;endFill=0;strokeWidth=2;" parent="1" source="6a7d8f32e03d9370-26" target="6a7d8f32e03d9370-29" edge="1">
          <mxGeometry relative="1" as="geometry" />
        </mxCell>
        <mxCell id="6a7d8f32e03d9370-54" style="edgeStyle=none;rounded=0;html=1;startSize=10;endSize=10;jettySize=auto;orthogonalLoop=1;fontSize=14;endArrow=none;endFill=0;strokeWidth=2;" parent="1" source="6a7d8f32e03d9370-26" target="6a7d8f32e03d9370-28" edge="1">
          <mxGeometry relative="1" as="geometry" />
        </mxCell>
        <mxCell id="6a7d8f32e03d9370-55" style="edgeStyle=none;rounded=0;html=1;startSize=10;endSize=10;jettySize=auto;orthogonalLoop=1;fontSize=14;endArrow=none;endFill=0;strokeWidth=2;" parent="1" source="6a7d8f32e03d9370-26" target="6a7d8f32e03d9370-27" edge="1">
          <mxGeometry relative="1" as="geometry" />
        </mxCell>
        <mxCell id="6a7d8f32e03d9370-26" value="" style="verticalLabelPosition=bottom;aspect=fixed;html=1;verticalAlign=top;strokeColor=none;shape=mxgraph.citrix.switch;fillColor=#66B2FF;gradientColor=#0066CC;fontSize=14;" parent="1" vertex="1">
          <mxGeometry x="1175" y="508" width="92" height="41.5" as="geometry" />
        </mxCell>
        <mxCell id="6a7d8f32e03d9370-27" value="Client" style="verticalLabelPosition=top;aspect=fixed;html=1;verticalAlign=bottom;strokeColor=none;shape=mxgraph.citrix.thin_client;fillColor=#66B2FF;gradientColor=#0066CC;fontSize=14;labelPosition=center;align=center;" parent="1" vertex="1">
          <mxGeometry x="1437" y="498" width="71" height="71" as="geometry" />
        </mxCell>
        <mxCell id="6a7d8f32e03d9370-28" value="Client" style="verticalLabelPosition=top;aspect=fixed;html=1;verticalAlign=bottom;strokeColor=none;shape=mxgraph.citrix.thin_client;fillColor=#66B2FF;gradientColor=#0066CC;fontSize=14;labelPosition=center;align=center;" parent="1" vertex="1">
          <mxGeometry x="1359" y="374" width="71" height="71" as="geometry" />
        </mxCell>
        <mxCell id="6a7d8f32e03d9370-29" value="Client" style="verticalLabelPosition=top;aspect=fixed;html=1;verticalAlign=bottom;strokeColor=none;shape=mxgraph.citrix.thin_client;fillColor=#66B2FF;gradientColor=#0066CC;fontSize=14;labelPosition=center;align=center;" parent="1" vertex="1">
          <mxGeometry x="1203" y="338" width="71" height="71" as="geometry" />
        </mxCell>
        <mxCell id="6a7d8f32e03d9370-49" style="edgeStyle=none;rounded=0;html=1;startSize=10;endSize=10;jettySize=auto;orthogonalLoop=1;fontSize=14;endArrow=none;endFill=0;strokeWidth=2;" parent="1" source="6a7d8f32e03d9370-30" target="6a7d8f32e03d9370-13" edge="1">
          <mxGeometry relative="1" as="geometry" />
        </mxCell>
        <mxCell id="6a7d8f32e03d9370-30" value="Web service" style="verticalLabelPosition=bottom;aspect=fixed;html=1;verticalAlign=top;strokeColor=none;shape=mxgraph.citrix.web_service;fillColor=#66B2FF;gradientColor=#0066CC;fontSize=14;" parent="1" vertex="1">
          <mxGeometry x="992" y="910" width="63" height="60" as="geometry" />
        </mxCell>
        <mxCell id="6a7d8f32e03d9370-31" value="" style="verticalLabelPosition=bottom;aspect=fixed;html=1;verticalAlign=top;strokeColor=none;shape=mxgraph.citrix.site;fillColor=#66B2FF;gradientColor=#0066CC;fontSize=14;" parent="1" vertex="1">
          <mxGeometry x="1409" y="995" width="107" height="101" as="geometry" />
        </mxCell>
        <mxCell id="6a7d8f32e03d9370-62" value="Citrix Network Architecture" style="text;strokeColor=none;fillColor=none;html=1;fontSize=24;fontStyle=1;verticalAlign=middle;align=center;" parent="1" vertex="1">
          <mxGeometry x="499" y="30" width="861" height="40" as="geometry" />
        </mxCell>
      </root>
    </mxGraphModel>
  </diagram>
  <diagram id="dk0LJWagvEBYaIfObqNW" name="第 2 页">
    <mxGraphModel dx="996" dy="503" grid="1" gridSize="10" guides="1" tooltips="1" connect="1" arrows="1" fold="1" page="1" pageScale="1" pageWidth="827" pageHeight="1169" math="0" shadow="0">
      <root>
        <mxCell id="0" />
        <mxCell id="1" parent="0" />
        <mxCell id="xXkZFiNESQEUeD_FX67Y-1" value="前端层" style="swimlane;fontStyle=1;align=center;verticalAlign=top;fillColor=#dae8fc;strokeColor=#6c8ebf;rounded=1;" vertex="1" parent="1">
          <mxGeometry x="190" y="230" width="1000" height="160" as="geometry" />
        </mxCell>
        <mxCell id="xXkZFiNESQEUeD_FX67Y-2" value="中间件层" style="swimlane;fontStyle=1;align=center;verticalAlign=top;fillColor=#d5e8d4;strokeColor=#82b366;rounded=1;" vertex="1" parent="1">
          <mxGeometry x="190" y="420" width="1000" height="160" as="geometry" />
        </mxCell>
        <mxCell id="xXkZFiNESQEUeD_FX67Y-3" value="AI引擎层" style="swimlane;fontStyle=1;align=center;verticalAlign=top;fillColor=#e1d5e7;strokeColor=#9673a6;rounded=1;" vertex="1" parent="1">
          <mxGeometry x="190" y="610" width="1000" height="200" as="geometry" />
        </mxCell>
        <mxCell id="xXkZFiNESQEUeD_FX67Y-4" value="后台集成" style="swimlane;fontStyle=1;align=center;verticalAlign=top;fillColor=#fff2cc;strokeColor=#d6b656;rounded=1;" vertex="1" parent="1">
          <mxGeometry x="190" y="840" width="1000" height="100" as="geometry" />
        </mxCell>
        <mxCell id="xXkZFiNESQEUeD_FX67Y-5" value="Web应用" style="rounded=1;whiteSpace=wrap;html=1;align=center;fillColor=#b1d1e8;strokeColor=#6c8ebf;fontSize=14;" vertex="1" parent="1">
          <mxGeometry x="260" y="270" width="120" height="60" as="geometry" />
        </mxCell>
        <mxCell id="xXkZFiNESQEUeD_FX67Y-6" value="移动APP" style="rounded=1;whiteSpace=wrap;html=1;align=center;fillColor=#b1d1e8;strokeColor=#6c8ebf;fontSize=14;" vertex="1" parent="1">
          <mxGeometry x="430" y="270" width="120" height="60" as="geometry" />
        </mxCell>
        <mxCell id="xXkZFiNESQEUeD_FX67Y-7" value="语音接口" style="rounded=1;whiteSpace=wrap;html=1;align=center;fillColor=#b1d1e8;strokeColor=#6c8ebf;fontSize=14;" vertex="1" parent="1">
          <mxGeometry x="600" y="270" width="120" height="60" as="geometry" />
        </mxCell>
        <mxCell id="xXkZFiNESQEUeD_FX67Y-8" value="文本聊天" style="rounded=1;whiteSpace=wrap;html=1;align=center;fillColor=#b1d1e8;strokeColor=#6c8ebf;fontSize=14;" vertex="1" parent="1">
          <mxGeometry x="770" y="270" width="120" height="60" as="geometry" />
        </mxCell>
        <mxCell id="xXkZFiNESQEUeD_FX67Y-9" value="消息队列(Kafka)" style="shape=cylinder;whiteSpace=wrap;html=1;boundedLbl=1;align=center;fillColor=#a6d5a0;strokeColor=#82b366;fontSize=14;" vertex="1" parent="1">
          <mxGeometry x="410" y="460" width="140" height="80" as="geometry" />
        </mxCell>
        <mxCell id="xXkZFiNESQEUeD_FX67Y-10" value="API网关" style="rounded=1;whiteSpace=wrap;html=1;align=center;fillColor=#a6d5a0;strokeColor=#82b366;fontSize=14;" vertex="1" parent="1">
          <mxGeometry x="710" y="460" width="140" height="80" as="geometry" />
        </mxCell>
        <mxCell id="xXkZFiNESQEUeD_FX67Y-11" value="意图识别(BERT)" style="shape=hexagon;perimeter=hexagonPerimeter2;whiteSpace=wrap;html=1;fixedSize=1;align=center;fillColor=#d2b7e0;strokeColor=#9673a6;fontSize=14;" vertex="1" parent="1">
          <mxGeometry x="310" y="660" width="140" height="70" as="geometry" />
        </mxCell>
        <mxCell id="xXkZFiNESQEUeD_FX67Y-12" value="多轮对话管理器" style="shape=hexagon;perimeter=hexagonPerimeter2;whiteSpace=wrap;html=1;fixedSize=1;align=center;fillColor=#d2b7e0;strokeColor=#9673a6;fontSize=14;" vertex="1" parent="1">
          <mxGeometry x="540" y="660" width="140" height="70" as="geometry" />
        </mxCell>
        <mxCell id="xXkZFiNESQEUeD_FX67Y-13" value="知识图谱查询" style="shape=hexagon;perimeter=hexagonPerimeter2;whiteSpace=wrap;html=1;fixedSize=1;align=center;fillColor=#d2b7e0;strokeColor=#9673a6;fontSize=14;" vertex="1" parent="1">
          <mxGeometry x="770" y="660" width="140" height="70" as="geometry" />
        </mxCell>
        <mxCell id="xXkZFiNESQEUeD_FX67Y-14" value="ERP数据同步" style="shape=cylinder;whiteSpace=wrap;html=1;boundedLbl=1;align=center;fillColor=#ffe699;strokeColor=#d6b656;fontSize=14;" vertex="1" parent="1">
          <mxGeometry x="560" y="870" width="140" height="80" as="geometry" />
        </mxCell>
        <mxCell id="xXkZFiNESQEUeD_FX67Y-15" value="HTTPS加密通信" style="shape=cloud;whiteSpace=wrap;html=1;align=center;verticalAlign=middle;fillColor=#e1f5fe;strokeColor=#039be5;fontSize=14;dashed=1;" vertex="1" parent="1">
          <mxGeometry x="510" y="520" width="180" height="90" as="geometry" />
        </mxCell>
        <mxCell id="xXkZFiNESQEUeD_FX67Y-16" value="" style="edgeStyle=orthogonalEdgeStyle;rounded=0;html=1;endArrow=classic;endFill=1;strokeColor=#FF0000;strokeWidth=2;jettySize=auto;orthogonalLoop=1;fontSize=14;" edge="1" parent="1" source="xXkZFiNESQEUeD_FX67Y-5" target="xXkZFiNESQEUeD_FX67Y-10">
          <mxGeometry relative="1" as="geometry" />
        </mxCell>
        <mxCell id="xXkZFiNESQEUeD_FX67Y-17" value="" style="edgeStyle=orthogonalEdgeStyle;rounded=0;html=1;endArrow=classic;endFill=1;strokeColor=#FF0000;strokeWidth=2;jettySize=auto;orthogonalLoop=1;fontSize=14;" edge="1" parent="1" source="xXkZFiNESQEUeD_FX67Y-6" target="xXkZFiNESQEUeD_FX67Y-10">
          <mxGeometry relative="1" as="geometry" />
        </mxCell>
        <mxCell id="xXkZFiNESQEUeD_FX67Y-18" value="" style="edgeStyle=orthogonalEdgeStyle;rounded=0;html=1;endArrow=classic;endFill=1;strokeColor=#FF0000;strokeWidth=2;jettySize=auto;orthogonalLoop=1;fontSize=14;" edge="1" parent="1" source="xXkZFiNESQEUeD_FX67Y-7" target="xXkZFiNESQEUeD_FX67Y-10">
          <mxGeometry relative="1" as="geometry" />
        </mxCell>
        <mxCell id="xXkZFiNESQEUeD_FX67Y-19" value="" style="edgeStyle=orthogonalEdgeStyle;rounded=0;html=1;endArrow=classic;endFill=1;strokeColor=#FF0000;strokeWidth=2;jettySize=auto;orthogonalLoop=1;fontSize=14;" edge="1" parent="1" source="xXkZFiNESQEUeD_FX67Y-8" target="xXkZFiNESQEUeD_FX67Y-10">
          <mxGeometry relative="1" as="geometry" />
        </mxCell>
        <mxCell id="xXkZFiNESQEUeD_FX67Y-20" value="" style="edgeStyle=orthogonalEdgeStyle;rounded=0;html=1;endArrow=classic;endFill=1;strokeColor=#FF0000;strokeWidth=2;jettySize=auto;orthogonalLoop=1;fontSize=14;" edge="1" parent="1" source="xXkZFiNESQEUeD_FX67Y-10" target="xXkZFiNESQEUeD_FX67Y-9">
          <mxGeometry relative="1" as="geometry" />
        </mxCell>
        <mxCell id="xXkZFiNESQEUeD_FX67Y-21" value="" style="edgeStyle=orthogonalEdgeStyle;rounded=0;html=1;endArrow=classic;endFill=1;strokeColor=#FF0000;strokeWidth=2;jettySize=auto;orthogonalLoop=1;fontSize=14;" edge="1" parent="1" source="xXkZFiNESQEUeD_FX67Y-9" target="xXkZFiNESQEUeD_FX67Y-11">
          <mxGeometry relative="1" as="geometry" />
        </mxCell>
        <mxCell id="xXkZFiNESQEUeD_FX67Y-22" value="" style="edgeStyle=orthogonalEdgeStyle;rounded=0;html=1;endArrow=classic;endFill=1;strokeColor=#FF0000;strokeWidth=2;jettySize=auto;orthogonalLoop=1;fontSize=14;" edge="1" parent="1" source="xXkZFiNESQEUeD_FX67Y-11" target="xXkZFiNESQEUeD_FX67Y-12">
          <mxGeometry relative="1" as="geometry" />
        </mxCell>
        <mxCell id="xXkZFiNESQEUeD_FX67Y-23" value="" style="edgeStyle=orthogonalEdgeStyle;rounded=0;html=1;endArrow=classic;endFill=1;strokeColor=#FF0000;strokeWidth=2;jettySize=auto;orthogonalLoop=1;fontSize=14;" edge="1" parent="1" source="xXkZFiNESQEUeD_FX67Y-12" target="xXkZFiNESQEUeD_FX67Y-13">
          <mxGeometry relative="1" as="geometry" />
        </mxCell>
        <mxCell id="xXkZFiNESQEUeD_FX67Y-24" value="" style="edgeStyle=orthogonalEdgeStyle;rounded=0;html=1;endArrow=classic;endFill=1;strokeColor=#FF0000;strokeWidth=2;jettySize=auto;orthogonalLoop=1;fontSize=14;" edge="1" parent="1" source="xXkZFiNESQEUeD_FX67Y-13" target="xXkZFiNESQEUeD_FX67Y-14">
          <mxGeometry relative="1" as="geometry" />
        </mxCell>
        <mxCell id="xXkZFiNESQEUeD_FX67Y-25" value="智能客服系统分层架构图" style="text;strokeColor=none;fillColor=none;html=1;fontSize=24;fontStyle=1;verticalAlign=middle;align=center;" vertex="1" parent="1">
          <mxGeometry x="510" y="190" width="400" height="40" as="geometry" />
        </mxCell>
      </root>
    </mxGraphModel>
  </diagram>
  <diagram id="Z9sFRhhlLm5iH5vu4282" name="文本机器人集成方案">
    <mxGraphModel dx="1423" dy="719" grid="1" gridSize="10" guides="1" tooltips="1" connect="1" arrows="1" fold="1" page="1" pageScale="1" pageWidth="827" pageHeight="1169" math="0" shadow="0">
      <root>
        <mxCell id="0" />
        <mxCell id="1" parent="0" />
        <mxCell id="bbVRLXWLjDA4X6QtCNtw-1" value="文本机器人对接集成方案" style="text;strokeColor=none;fillColor=none;html=1;fontSize=24;fontStyle=1;verticalAlign=middle;align=center;" vertex="1" parent="1">
          <mxGeometry x="570" y="680" width="400" height="40" as="geometry" />
        </mxCell>
        <mxCell id="bbVRLXWLjDA4X6QtCNtw-2" value="第三方应用" style="whiteSpace=wrap;html=1;fillColor=#dae8fc;fontSize=16;strokeColor=#6c8ebf;verticalAlign=top;" vertex="1" parent="1">
          <mxGeometry x="180" y="750" width="300" height="600" as="geometry" />
        </mxCell>
        <mxCell id="bbVRLXWLjDA4X6QtCNtw-3" value="服务层" style="whiteSpace=wrap;html=1;fillColor=#d5e8d4;fontSize=16;strokeColor=#82b366;verticalAlign=top;" vertex="1" parent="1">
          <mxGeometry x="540" y="750" width="300" height="600" as="geometry" />
        </mxCell>
        <mxCell id="bbVRLXWLjDA4X6QtCNtw-4" value="AI能力层" style="whiteSpace=wrap;html=1;fillColor=#e1d5e7;fontSize=16;strokeColor=#9673a6;verticalAlign=top;" vertex="1" parent="1">
          <mxGeometry x="900" y="750" width="300" height="600" as="geometry" />
        </mxCell>
        <mxCell id="bbVRLXWLjDA4X6QtCNtw-5" value="第三方认证系统" style="rounded=1;whiteSpace=wrap;html=1;align=center;fillColor=#b1d1e8;strokeColor=#6c8ebf;fontSize=14;" vertex="1" parent="1">
          <mxGeometry x="210" y="790" width="240" height="50" as="geometry" />
        </mxCell>
        <mxCell id="bbVRLXWLjDA4X6QtCNtw-6" value="第三方APP移动端SDK" style="rounded=1;whiteSpace=wrap;html=1;align=center;fillColor=#b1d1e8;strokeColor=#6c8ebf;fontSize=14;" vertex="1" parent="1">
          <mxGeometry x="210" y="860" width="240" height="50" as="geometry" />
        </mxCell>
        <mxCell id="bbVRLXWLjDA4X6QtCNtw-7" value="第三方微信端(小程序/公众号H5)" style="rounded=1;whiteSpace=wrap;html=1;align=center;fillColor=#b1d1e8;strokeColor=#6c8ebf;fontSize=14;" vertex="1" parent="1">
          <mxGeometry x="210" y="930" width="240" height="50" as="geometry" />
        </mxCell>
        <mxCell id="bbVRLXWLjDA4X6QtCNtw-8" value="第三方WEB端" style="rounded=1;whiteSpace=wrap;html=1;align=center;fillColor=#b1d1e8;strokeColor=#6c8ebf;fontSize=14;" vertex="1" parent="1">
          <mxGeometry x="210" y="1000" width="240" height="50" as="geometry" />
        </mxCell>
        <mxCell id="bbVRLXWLjDA4X6QtCNtw-9" value="第三方IM系统后端" style="rounded=1;whiteSpace=wrap;html=1;align=center;fillColor=#b1d1e8;strokeColor=#6c8ebf;fontSize=14;" vertex="1" parent="1">
          <mxGeometry x="210" y="1070" width="240" height="50" as="geometry" />
        </mxCell>
        <mxCell id="bbVRLXWLjDA4X6QtCNtw-10" value="第三方业务系统" style="rounded=1;whiteSpace=wrap;html=1;align=center;fillColor=#b1d1e8;strokeColor=#6c8ebf;fontSize=14;" vertex="1" parent="1">
          <mxGeometry x="210" y="1140" width="240" height="50" as="geometry" />
        </mxCell>
        <mxCell id="bbVRLXWLjDA4X6QtCNtw-11" value="引擎对接(第三方AI引擎)" style="rounded=1;whiteSpace=wrap;html=1;align=center;fillColor=#b1d1e8;strokeColor=#6c8ebf;fontSize=14;" vertex="1" parent="1">
          <mxGeometry x="210" y="1210" width="240" height="50" as="geometry" />
        </mxCell>
        <mxCell id="bbVRLXWLjDA4X6QtCNtw-12" value="统一请求接入模块" style="rounded=1;whiteSpace=wrap;html=1;align=center;fillColor=#a6d5a0;strokeColor=#82b366;fontSize=14;" vertex="1" parent="1">
          <mxGeometry x="570" y="790" width="240" height="50" as="geometry" />
        </mxCell>
        <mxCell id="bbVRLXWLjDA4X6QtCNtw-13" value="SDK模块" style="rounded=1;whiteSpace=wrap;html=1;align=center;fillColor=#a6d5a0;strokeColor=#82b366;fontSize=14;" vertex="1" parent="1">
          <mxGeometry x="570" y="860" width="240" height="50" as="geometry" />
        </mxCell>
        <mxCell id="bbVRLXWLjDA4X6QtCNtw-14" value="文本机器人模块" style="rounded=1;whiteSpace=wrap;html=1;align=center;fillColor=#a6d5a0;strokeColor=#82b366;fontSize=14;" vertex="1" parent="1">
          <mxGeometry x="570" y="930" width="240" height="50" as="geometry" />
        </mxCell>
        <mxCell id="bbVRLXWLjDA4X6QtCNtw-15" value="知识库模块" style="rounded=1;whiteSpace=wrap;html=1;align=center;fillColor=#a6d5a0;strokeColor=#82b366;fontSize=14;" vertex="1" parent="1">
          <mxGeometry x="570" y="1000" width="240" height="50" as="geometry" />
        </mxCell>
        <mxCell id="bbVRLXWLjDA4X6QtCNtw-16" value="AI管理中台模块" style="rounded=1;whiteSpace=wrap;html=1;align=center;fillColor=#a6d5a0;strokeColor=#82b366;fontSize=14;" vertex="1" parent="1">
          <mxGeometry x="570" y="1070" width="240" height="50" as="geometry" />
        </mxCell>
        <mxCell id="bbVRLXWLjDA4X6QtCNtw-17" value="ASR语音识别引擎" style="shape=hexagon;perimeter=hexagonPerimeter2;whiteSpace=wrap;html=1;fixedSize=1;align=center;fillColor=#d2b7e0;strokeColor=#9673a6;fontSize=14;" vertex="1" parent="1">
          <mxGeometry x="930" y="790" width="240" height="50" as="geometry" />
        </mxCell>
        <mxCell id="bbVRLXWLjDA4X6QtCNtw-18" value="TTS语音合成引擎" style="shape=hexagon;perimeter=hexagonPerimeter2;whiteSpace=wrap;html=1;fixedSize=1;align=center;fillColor=#d2b7e0;strokeColor=#9673a6;fontSize=14;" vertex="1" parent="1">
          <mxGeometry x="930" y="860" width="240" height="50" as="geometry" />
        </mxCell>
        <mxCell id="bbVRLXWLjDA4X6QtCNtw-19" value="NLP自然语言处理引擎" style="shape=hexagon;perimeter=hexagonPerimeter2;whiteSpace=wrap;html=1;fixedSize=1;align=center;fillColor=#d2b7e0;strokeColor=#9673a6;fontSize=14;" vertex="1" parent="1">
          <mxGeometry x="930" y="930" width="240" height="50" as="geometry" />
        </mxCell>
        <mxCell id="bbVRLXWLjDA4X6QtCNtw-20" value="行内业务系统" style="rounded=1;whiteSpace=wrap;html=1;align=center;fillColor=#ffe699;strokeColor=#d6b656;fontSize=14;" vertex="1" parent="1">
          <mxGeometry x="930" y="1070" width="240" height="50" as="geometry" />
        </mxCell>
        <mxCell id="bbVRLXWLjDA4X6QtCNtw-21" value="HTTP" style="edgeStyle=orthogonalEdgeStyle;rounded=0;html=1;endArrow=classic;endFill=1;strokeColor=#000000;strokeWidth=1;jettySize=auto;orthogonalLoop=1;fontSize=12;" edge="1" parent="1" source="bbVRLXWLjDA4X6QtCNtw-5" target="bbVRLXWLjDA4X6QtCNtw-12">
          <mxGeometry relative="1" as="geometry" />
        </mxCell>
        <mxCell id="bbVRLXWLjDA4X6QtCNtw-22" value="WebSockets" style="edgeStyle=orthogonalEdgeStyle;rounded=0;html=1;endArrow=classic;endFill=1;strokeColor=#000000;strokeWidth=1;jettySize=auto;orthogonalLoop=1;fontSize=12;" edge="1" parent="1" source="bbVRLXWLjDA4X6QtCNtw-6" target="bbVRLXWLjDA4X6QtCNtw-13">
          <mxGeometry relative="1" as="geometry" />
        </mxCell>
        <mxCell id="bbVRLXWLjDA4X6QtCNtw-23" value="微信后台" style="rounded=1;whiteSpace=wrap;html=1;align=center;fillColor=#f5f5f5;strokeColor=#666666;fontSize=12;" vertex="1" parent="1">
          <mxGeometry x="420" y="930" width="100" height="30" as="geometry" />
        </mxCell>
        <mxCell id="bbVRLXWLjDA4X6QtCNtw-24" value="WebSockets" style="edgeStyle=orthogonalEdgeStyle;rounded=0;html=1;endArrow=none;endFill=0;strokeColor=#000000;strokeWidth=1;jettySize=auto;orthogonalLoop=1;fontSize=12;" edge="1" parent="1" source="bbVRLXWLjDA4X6QtCNtw-7" target="bbVRLXWLjDA4X6QtCNtw-23">
          <mxGeometry relative="1" as="geometry" />
        </mxCell>
        <mxCell id="bbVRLXWLjDA4X6QtCNtw-25" value="HTTPS" style="edgeStyle=orthogonalEdgeStyle;rounded=0;html=1;endArrow=classic;endFill=1;strokeColor=#000000;strokeWidth=1;jettySize=auto;orthogonalLoop=1;fontSize=12;" edge="1" parent="1" source="bbVRLXWLjDA4X6QtCNtw-23" target="bbVRLXWLjDA4X6QtCNtw-13">
          <mxGeometry relative="1" as="geometry" />
        </mxCell>
        <mxCell id="bbVRLXWLjDA4X6QtCNtw-26" value="WebSockets" style="edgeStyle=orthogonalEdgeStyle;rounded=0;html=1;endArrow=classic;endFill=1;strokeColor=#000000;strokeWidth=1;jettySize=auto;orthogonalLoop=1;fontSize=12;" edge="1" parent="1" source="bbVRLXWLjDA4X6QtCNtw-8" target="bbVRLXWLjDA4X6QtCNtw-13">
          <mxGeometry relative="1" as="geometry" />
        </mxCell>
        <mxCell id="bbVRLXWLjDA4X6QtCNtw-27" value="HTTP" style="edgeStyle=orthogonalEdgeStyle;rounded=0;html=1;endArrow=classic;endFill=1;strokeColor=#000000;strokeWidth=1;jettySize=auto;orthogonalLoop=1;fontSize=12;" edge="1" parent="1" source="bbVRLXWLjDA4X6QtCNtw-9" target="bbVRLXWLjDA4X6QtCNtw-13">
          <mxGeometry relative="1" as="geometry">
            <Array as="points">
              <mxPoint x="520" y="1095" />
              <mxPoint x="520" y="885" />
            </Array>
          </mxGeometry>
        </mxCell>
        <mxCell id="bbVRLXWLjDA4X6QtCNtw-28" value="HTTPS" style="edgeStyle=orthogonalEdgeStyle;rounded=0;html=1;endArrow=classic;endFill=1;strokeColor=#000000;strokeWidth=1;jettySize=auto;orthogonalLoop=1;fontSize=12;" edge="1" parent="1" source="bbVRLXWLjDA4X6QtCNtw-10" target="bbVRLXWLjDA4X6QtCNtw-16">
          <mxGeometry relative="1" as="geometry" />
        </mxCell>
        <mxCell id="bbVRLXWLjDA4X6QtCNtw-29" value="HTTP" style="edgeStyle=orthogonalEdgeStyle;rounded=0;html=1;endArrow=classic;endFill=1;strokeColor=#000000;strokeWidth=1;jettySize=auto;orthogonalLoop=1;fontSize=12;" edge="1" parent="1" source="bbVRLXWLjDA4X6QtCNtw-11" target="bbVRLXWLjDA4X6QtCNtw-16">
          <mxGeometry relative="1" as="geometry" />
        </mxCell>
        <mxCell id="bbVRLXWLjDA4X6QtCNtw-30" value="" style="edgeStyle=orthogonalEdgeStyle;rounded=0;html=1;endArrow=classic;endFill=1;strokeColor=#000000;strokeWidth=1;jettySize=auto;orthogonalLoop=1;fontSize=12;" edge="1" parent="1" source="bbVRLXWLjDA4X6QtCNtw-12" target="bbVRLXWLjDA4X6QtCNtw-13">
          <mxGeometry relative="1" as="geometry" />
        </mxCell>
        <mxCell id="bbVRLXWLjDA4X6QtCNtw-31" value="会话管理" style="edgeStyle=orthogonalEdgeStyle;rounded=0;html=1;endArrow=classic;endFill=1;strokeColor=#000000;strokeWidth=1;jettySize=auto;orthogonalLoop=1;fontSize=12;" edge="1" parent="1" source="bbVRLXWLjDA4X6QtCNtw-13" target="bbVRLXWLjDA4X6QtCNtw-14">
          <mxGeometry relative="1" as="geometry" />
        </mxCell>
        <mxCell id="bbVRLXWLjDA4X6QtCNtw-32" value="知识库调用" style="edgeStyle=orthogonalEdgeStyle;rounded=0;html=1;endArrow=classic;endFill=1;strokeColor=#000000;strokeWidth=1;jettySize=auto;orthogonalLoop=1;fontSize=12;" edge="1" parent="1" source="bbVRLXWLjDA4X6QtCNtw-14" target="bbVRLXWLjDA4X6QtCNtw-15">
          <mxGeometry relative="1" as="geometry" />
        </mxCell>
        <mxCell id="bbVRLXWLjDA4X6QtCNtw-33" value="AI能力调用" style="edgeStyle=orthogonalEdgeStyle;rounded=0;html=1;endArrow=classic;endFill=1;strokeColor=#000000;strokeWidth=1;jettySize=auto;orthogonalLoop=1;fontSize=12;" edge="1" parent="1" source="bbVRLXWLjDA4X6QtCNtw-14" target="bbVRLXWLjDA4X6QtCNtw-16">
          <mxGeometry relative="1" as="geometry" />
        </mxCell>
        <mxCell id="bbVRLXWLjDA4X6QtCNtw-34" value="语音识别" style="edgeStyle=orthogonalEdgeStyle;rounded=0;html=1;endArrow=classic;endFill=1;strokeColor=#000000;strokeWidth=1;jettySize=auto;orthogonalLoop=1;fontSize=12;" edge="1" parent="1" source="bbVRLXWLjDA4X6QtCNtw-16" target="bbVRLXWLjDA4X6QtCNtw-17">
          <mxGeometry relative="1" as="geometry" />
        </mxCell>
        <mxCell id="bbVRLXWLjDA4X6QtCNtw-35" value="语音合成" style="edgeStyle=orthogonalEdgeStyle;rounded=0;html=1;endArrow=classic;endFill=1;strokeColor=#000000;strokeWidth=1;jettySize=auto;orthogonalLoop=1;fontSize=12;" edge="1" parent="1" source="bbVRLXWLjDA4X6QtCNtw-16" target="bbVRLXWLjDA4X6QtCNtw-18">
          <mxGeometry relative="1" as="geometry" />
        </mxCell>
        <mxCell id="bbVRLXWLjDA4X6QtCNtw-36" value="NLP处理" style="edgeStyle=orthogonalEdgeStyle;rounded=0;html=1;endArrow=classic;endFill=1;strokeColor=#000000;strokeWidth=1;jettySize=auto;orthogonalLoop=1;fontSize=12;" edge="1" parent="1" source="bbVRLXWLjDA4X6QtCNtw-16" target="bbVRLXWLjDA4X6QtCNtw-19">
          <mxGeometry relative="1" as="geometry" />
        </mxCell>
        <mxCell id="bbVRLXWLjDA4X6QtCNtw-37" value="业务数据同步" style="edgeStyle=orthogonalEdgeStyle;rounded=0;html=1;endArrow=classic;endFill=1;strokeColor=#000000;strokeWidth=1;jettySize=auto;orthogonalLoop=1;fontSize=12;" edge="1" parent="1" source="bbVRLXWLjDA4X6QtCNtw-16" target="bbVRLXWLjDA4X6QtCNtw-20">
          <mxGeometry relative="1" as="geometry" />
        </mxCell>
        <mxCell id="bbVRLXWLjDA4X6QtCNtw-38" value="人工客服" style="rounded=1;whiteSpace=wrap;html=1;align=center;fillColor=#f8cecc;strokeColor=#b85450;fontSize=14;" vertex="1" parent="1">
          <mxGeometry x="570" y="1210" width="240" height="50" as="geometry" />
        </mxCell>
        <mxCell id="bbVRLXWLjDA4X6QtCNtw-39" value="转人工" style="edgeStyle=orthogonalEdgeStyle;rounded=0;html=1;endArrow=classic;endFill=1;strokeColor=#FF0000;strokeWidth=2;jettySize=auto;orthogonalLoop=1;fontSize=12;dashed=1;" edge="1" parent="1" source="bbVRLXWLjDA4X6QtCNtw-13" target="bbVRLXWLjDA4X6QtCNtw-38">
          <mxGeometry relative="1" as="geometry" />
        </mxCell>
        <mxCell id="bbVRLXWLjDA4X6QtCNtw-40" value="&lt;b&gt;图例说明&lt;/b&gt;&lt;br&gt;红色虚线箭头：转人工流程&lt;br&gt;黑色实线箭头：数据流/通信协议" style="text;strokeColor=none;fillColor=#ffffff;html=1;fontSize=12;verticalAlign=top;align=left;" vertex="1" parent="1">
          <mxGeometry x="180" y="1370" width="300" height="80" as="geometry" />
        </mxCell>
      </root>
    </mxGraphModel>
  </diagram>
  <diagram id="d34fHybTEx5vsxFx_n3k" name="智能语音导航集成方案">
    <mxGraphModel dx="1245" dy="629" grid="1" gridSize="10" guides="1" tooltips="1" connect="1" arrows="1" fold="1" page="1" pageScale="1" pageWidth="827" pageHeight="1169" math="0" shadow="0">
      <root>
        <mxCell id="0" />
        <mxCell id="1" parent="0" />
        <mxCell id="hq4oN2k3iXWSaDLyB1I9-2" value="用户终端" style="swimlane;fillColor=#dae8fc;fontSize=16;strokeColor=#6c8ebf;" vertex="1" parent="1">
          <mxGeometry width="200" height="1100" as="geometry" />
        </mxCell>
        <mxCell id="hq4oN2k3iXWSaDLyB1I9-3" value="" style="shape=mxgraph.citrix.phone;fillColor=#66B2FF;gradientColor=#0066CC;fontSize=14;strokeColor=none;" vertex="1" parent="hq4oN2k3iXWSaDLyB1I9-2">
          <mxGeometry x="58" y="77" width="80" height="80" as="geometry" />
        </mxCell>
        <mxCell id="hq4oN2k3iXWSaDLyB1I9-50" value="" style="verticalLabelPosition=bottom;sketch=0;aspect=fixed;html=1;verticalAlign=top;strokeColor=none;align=center;outlineConnect=0;shape=mxgraph.citrix.cell_phone;" vertex="1" parent="hq4oN2k3iXWSaDLyB1I9-2">
          <mxGeometry x="87.5" y="90" width="25" height="60" as="geometry" />
        </mxCell>
        <mxCell id="hq4oN2k3iXWSaDLyB1I9-5" value="华为平台" style="swimlane;fillColor=#d5e8d4;fontSize=16;strokeColor=#0070c0;" vertex="1" parent="1">
          <mxGeometry x="200" width="350" height="1100" as="geometry" />
        </mxCell>
        <mxCell id="hq4oN2k3iXWSaDLyB1I9-6" value="华为电话平台&#xa;（对接运营商线路）" style="shape=mxgraph.citrix.web_server;fillColor=#66B2FF;gradientColor=#0070c0;fontSize=14;strokeColor=none;verticalLabelPosition=bottom;sketch=0;aspect=fixed;html=1;verticalAlign=top;outlineConnect=0;" vertex="1" parent="hq4oN2k3iXWSaDLyB1I9-5">
          <mxGeometry x="132" y="91.33" width="80" height="53.34" as="geometry" />
        </mxCell>
        <mxCell id="hq4oN2k3iXWSaDLyB1I9-8" value="IVR语音菜单服务&#xa;（含数字按键）" style="shape=mxgraph.citrix.cache_server;fillColor=#66B2FF;gradientColor=#0070c0;fontSize=14;strokeColor=none;labelPosition=center;verticalLabelPosition=bottom;align=center;verticalAlign=top;" vertex="1" parent="hq4oN2k3iXWSaDLyB1I9-5">
          <mxGeometry x="134.5" y="220" width="77" height="80" as="geometry" />
        </mxCell>
        <mxCell id="hq4oN2k3iXWSaDLyB1I9-10" value="IVR节点跳转" style="ellipse;fillColor=#d5e8d4;strokeColor=#0070c0;fontSize=14;" vertex="1" parent="hq4oN2k3iXWSaDLyB1I9-5">
          <mxGeometry x="113" y="540" width="120" height="60" as="geometry" />
        </mxCell>
        <mxCell id="hq4oN2k3iXWSaDLyB1I9-11" value="核身判断" style="rhombus;fillColor=#00b050;strokeColor=#0070c0;fontSize=14;" vertex="1" parent="hq4oN2k3iXWSaDLyB1I9-5">
          <mxGeometry x="113" y="660" width="120" height="80" as="geometry" />
        </mxCell>
        <mxCell id="hq4oN2k3iXWSaDLyB1I9-12" value="是" style="text;strokeColor=none;fillColor=none;fontSize=12;" vertex="1" parent="hq4oN2k3iXWSaDLyB1I9-11">
          <mxGeometry x="100" y="30" width="20" height="20" as="geometry" />
        </mxCell>
        <mxCell id="hq4oN2k3iXWSaDLyB1I9-13" value="否" style="text;strokeColor=none;fillColor=none;fontSize=12;" vertex="1" parent="hq4oN2k3iXWSaDLyB1I9-11">
          <mxGeometry y="30" width="20" height="20" as="geometry" />
        </mxCell>
        <mxCell id="hq4oN2k3iXWSaDLyB1I9-14" value="业务节点" style="shape=mxgraph.citrix.web_service;fillColor=#66B2FF;gradientColor=#0070c0;fontSize=14;strokeColor=none;" vertex="1" parent="hq4oN2k3iXWSaDLyB1I9-5">
          <mxGeometry x="113" y="800" width="120" height="60" as="geometry" />
        </mxCell>
        <mxCell id="hq4oN2k3iXWSaDLyB1I9-15" value="平安服务" style="swimlane;fillColor=#e2efd9;fontSize=16;strokeColor=#00b050;" vertex="1" parent="1">
          <mxGeometry x="550" width="350" height="1100" as="geometry" />
        </mxCell>
        <mxCell id="hq4oN2k3iXWSaDLyB1I9-16" value="平安智能语音导航机器人" style="shape=mxgraph.citrix.robot;fillColor=#00b050;gradientColor=#009900;fontSize=14;strokeColor=none;" vertex="1" parent="hq4oN2k3iXWSaDLyB1I9-15">
          <mxGeometry x="115" y="299" width="120" height="80" as="geometry" />
        </mxCell>
        <mxCell id="hq4oN2k3iXWSaDLyB1I9-17" value="AI中台" style="shape=mxgraph.citrix.server;fillColor=#00b050;gradientColor=#009900;fontSize=14;strokeColor=none;" vertex="1" parent="hq4oN2k3iXWSaDLyB1I9-15">
          <mxGeometry x="115" y="439" width="120" height="60" as="geometry" />
        </mxCell>
        <mxCell id="hq4oN2k3iXWSaDLyB1I9-18" value="NLP" style="shape=mxgraph.citrix.server;fillColor=#00b050;gradientColor=#009900;fontSize=14;strokeColor=none;" vertex="1" parent="hq4oN2k3iXWSaDLyB1I9-15">
          <mxGeometry x="115" y="539" width="120" height="60" as="geometry" />
        </mxCell>
        <mxCell id="hq4oN2k3iXWSaDLyB1I9-19" value="意图澄清" style="ellipse;fillColor=#e2efd9;strokeColor=#00b050;fontSize=14;" vertex="1" parent="hq4oN2k3iXWSaDLyB1I9-15">
          <mxGeometry x="115" y="659" width="120" height="60" as="geometry" />
        </mxCell>
        <mxCell id="hq4oN2k3iXWSaDLyB1I9-31" style="edgeStyle=orthogonalEdgeStyle;endArrow=block;strokeColor=#00b050;strokeWidth=2;" edge="1" parent="hq4oN2k3iXWSaDLyB1I9-15" source="hq4oN2k3iXWSaDLyB1I9-16" target="hq4oN2k3iXWSaDLyB1I9-17">
          <mxGeometry relative="1" as="geometry" />
        </mxCell>
        <mxCell id="hq4oN2k3iXWSaDLyB1I9-32" style="edgeStyle=orthogonalEdgeStyle;endArrow=block;strokeColor=#00b050;strokeWidth=2;" edge="1" parent="hq4oN2k3iXWSaDLyB1I9-15" source="hq4oN2k3iXWSaDLyB1I9-17" target="hq4oN2k3iXWSaDLyB1I9-18">
          <mxGeometry relative="1" as="geometry" />
        </mxCell>
        <mxCell id="hq4oN2k3iXWSaDLyB1I9-33" style="edgeStyle=orthogonalEdgeStyle;endArrow=block;strokeColor=#00b050;strokeWidth=2;" edge="1" parent="hq4oN2k3iXWSaDLyB1I9-15" source="hq4oN2k3iXWSaDLyB1I9-18" target="hq4oN2k3iXWSaDLyB1I9-19">
          <mxGeometry relative="1" as="geometry" />
        </mxCell>
        <mxCell id="hq4oN2k3iXWSaDLyB1I9-20" value="ASR/TTS" style="swimlane;fillColor=#fff2cc;fontSize=16;strokeColor=#c00000;" vertex="1" parent="1">
          <mxGeometry x="900" width="330" height="1100" as="geometry" />
        </mxCell>
        <mxCell id="hq4oN2k3iXWSaDLyB1I9-21" value="ASR/TTS语音识别/合成" style="rounded=1;dashed=1;dashPattern=5 5;strokeColor=#ff0000;fillColor=#fff2cc;fontSize=14;" vertex="1" parent="hq4oN2k3iXWSaDLyB1I9-20">
          <mxGeometry x="50" y="180" width="180" height="80" as="geometry" />
        </mxCell>
        <mxCell id="hq4oN2k3iXWSaDLyB1I9-22" value="全局指令处理" style="rounded=1;fillColor=#fff2cc;strokeColor=#ff9900;fontSize=14;" vertex="1" parent="hq4oN2k3iXWSaDLyB1I9-20">
          <mxGeometry x="50" y="540" width="180" height="60" as="geometry" />
        </mxCell>
        <mxCell id="hq4oN2k3iXWSaDLyB1I9-23" value="上级" style="rounded=1;fillColor=#fff2cc;strokeColor=#ff9900;fontSize=12;" vertex="1" parent="hq4oN2k3iXWSaDLyB1I9-20">
          <mxGeometry x="50" y="640" width="80" height="40" as="geometry" />
        </mxCell>
        <mxCell id="hq4oN2k3iXWSaDLyB1I9-24" value="下级" style="rounded=1;fillColor=#fff2cc;strokeColor=#ff9900;fontSize=12;" vertex="1" parent="hq4oN2k3iXWSaDLyB1I9-20">
          <mxGeometry x="150" y="640" width="80" height="40" as="geometry" />
        </mxCell>
        <mxCell id="hq4oN2k3iXWSaDLyB1I9-25" value="重听" style="rounded=1;fillColor=#fff2cc;strokeColor=#ff9900;fontSize=12;" vertex="1" parent="hq4oN2k3iXWSaDLyB1I9-20">
          <mxGeometry x="250" y="640" width="80" height="40" as="geometry" />
        </mxCell>
        <mxCell id="hq4oN2k3iXWSaDLyB1I9-40" style="edgeStyle=orthogonalEdgeStyle;endArrow=block;strokeColor=#ff9900;strokeWidth=2;" edge="1" parent="hq4oN2k3iXWSaDLyB1I9-20" source="hq4oN2k3iXWSaDLyB1I9-22" target="hq4oN2k3iXWSaDLyB1I9-23">
          <mxGeometry relative="1" as="geometry" />
        </mxCell>
        <mxCell id="hq4oN2k3iXWSaDLyB1I9-41" style="edgeStyle=orthogonalEdgeStyle;endArrow=block;strokeColor=#ff9900;strokeWidth=2;" edge="1" parent="hq4oN2k3iXWSaDLyB1I9-20" source="hq4oN2k3iXWSaDLyB1I9-22" target="hq4oN2k3iXWSaDLyB1I9-24">
          <mxGeometry relative="1" as="geometry" />
        </mxCell>
        <mxCell id="hq4oN2k3iXWSaDLyB1I9-42" style="edgeStyle=orthogonalEdgeStyle;endArrow=block;strokeColor=#ff9900;strokeWidth=2;" edge="1" parent="hq4oN2k3iXWSaDLyB1I9-20" source="hq4oN2k3iXWSaDLyB1I9-22" target="hq4oN2k3iXWSaDLyB1I9-25">
          <mxGeometry relative="1" as="geometry" />
        </mxCell>
        <mxCell id="hq4oN2k3iXWSaDLyB1I9-26" style="edgeStyle=orthogonalEdgeStyle;endArrow=block;strokeColor=#0070c0;strokeWidth=2;" edge="1" parent="1" source="hq4oN2k3iXWSaDLyB1I9-3" target="hq4oN2k3iXWSaDLyB1I9-6">
          <mxGeometry relative="1" as="geometry" />
        </mxCell>
        <mxCell id="hq4oN2k3iXWSaDLyB1I9-49" value="电话进线" style="edgeLabel;html=1;align=center;verticalAlign=middle;resizable=0;points=[];" vertex="1" connectable="0" parent="hq4oN2k3iXWSaDLyB1I9-26">
          <mxGeometry x="-0.1561" y="2" relative="1" as="geometry">
            <mxPoint x="1" as="offset" />
          </mxGeometry>
        </mxCell>
        <mxCell id="hq4oN2k3iXWSaDLyB1I9-27" style="edgeStyle=orthogonalEdgeStyle;endArrow=block;strokeColor=#0070c0;strokeWidth=2;" edge="1" parent="1" source="hq4oN2k3iXWSaDLyB1I9-6" target="hq4oN2k3iXWSaDLyB1I9-8">
          <mxGeometry relative="1" as="geometry" />
        </mxCell>
        <mxCell id="hq4oN2k3iXWSaDLyB1I9-28" style="edgeStyle=orthogonalEdgeStyle;endArrow=block;strokeColor=#6c8ebf;strokeWidth=2;entryX=0.5;entryY=1;entryDx=0;entryDy=0;" edge="1" parent="1" source="hq4oN2k3iXWSaDLyB1I9-8" target="hq4oN2k3iXWSaDLyB1I9-3">
          <mxGeometry relative="1" as="geometry">
            <mxPoint x="160" y="260" as="targetPoint" />
          </mxGeometry>
        </mxCell>
        <mxCell id="hq4oN2k3iXWSaDLyB1I9-51" value="&lt;span style=&quot;font-size: 14px; text-wrap: wrap; background-color: rgb(251, 251, 251);&quot;&gt;用户按键&lt;/span&gt;&lt;div&gt;&lt;span style=&quot;font-size: 14px; text-wrap: wrap; background-color: rgb(251, 251, 251);&quot;&gt;说话&lt;/span&gt;&lt;/div&gt;" style="edgeLabel;html=1;align=center;verticalAlign=middle;resizable=0;points=[];" vertex="1" connectable="0" parent="hq4oN2k3iXWSaDLyB1I9-28">
          <mxGeometry x="-0.0717" y="-1" relative="1" as="geometry">
            <mxPoint as="offset" />
          </mxGeometry>
        </mxCell>
        <mxCell id="hq4oN2k3iXWSaDLyB1I9-29" style="edgeStyle=orthogonalEdgeStyle;endArrow=block;strokeColor=#c00000;strokeWidth=2;" edge="1" parent="1" source="hq4oN2k3iXWSaDLyB1I9-8" target="hq4oN2k3iXWSaDLyB1I9-21">
          <mxGeometry relative="1" as="geometry" />
        </mxCell>
        <mxCell id="hq4oN2k3iXWSaDLyB1I9-30" style="edgeStyle=orthogonalEdgeStyle;endArrow=block;strokeColor=#00b050;strokeWidth=2;" edge="1" parent="1" source="hq4oN2k3iXWSaDLyB1I9-21" target="hq4oN2k3iXWSaDLyB1I9-16">
          <mxGeometry relative="1" as="geometry" />
        </mxCell>
        <mxCell id="hq4oN2k3iXWSaDLyB1I9-34" style="edgeStyle=orthogonalEdgeStyle;endArrow=block;strokeColor=#00b050;strokeWidth=2;curved=1;" edge="1" parent="1" source="hq4oN2k3iXWSaDLyB1I9-19" target="hq4oN2k3iXWSaDLyB1I9-21">
          <mxGeometry relative="1" as="geometry" />
        </mxCell>
        <mxCell id="hq4oN2k3iXWSaDLyB1I9-35" style="edgeStyle=orthogonalEdgeStyle;endArrow=block;strokeColor=#0070c0;strokeWidth=2;" edge="1" parent="1" source="hq4oN2k3iXWSaDLyB1I9-10" target="hq4oN2k3iXWSaDLyB1I9-11">
          <mxGeometry relative="1" as="geometry" />
        </mxCell>
        <mxCell id="hq4oN2k3iXWSaDLyB1I9-36" style="edgeStyle=orthogonalEdgeStyle;endArrow=block;strokeColor=#00b050;strokeWidth=2;" edge="1" parent="1" source="hq4oN2k3iXWSaDLyB1I9-11" target="hq4oN2k3iXWSaDLyB1I9-14">
          <mxGeometry relative="1" as="geometry" />
        </mxCell>
        <mxCell id="hq4oN2k3iXWSaDLyB1I9-37" style="edgeStyle=orthogonalEdgeStyle;endArrow=block;strokeColor=#ff0000;strokeWidth=2;dashed=1;" edge="1" parent="1" source="hq4oN2k3iXWSaDLyB1I9-11" target="hq4oN2k3iXWSaDLyB1I9-8">
          <mxGeometry relative="1" as="geometry" />
        </mxCell>
        <mxCell id="hq4oN2k3iXWSaDLyB1I9-38" style="edgeStyle=orthogonalEdgeStyle;endArrow=block;strokeColor=#0070c0;strokeWidth=2;" edge="1" parent="1" source="hq4oN2k3iXWSaDLyB1I9-18" target="hq4oN2k3iXWSaDLyB1I9-10">
          <mxGeometry relative="1" as="geometry" />
        </mxCell>
        <mxCell id="hq4oN2k3iXWSaDLyB1I9-39" style="edgeStyle=orthogonalEdgeStyle;endArrow=block;strokeColor=#ff9900;strokeWidth=3;" edge="1" parent="1" source="hq4oN2k3iXWSaDLyB1I9-18" target="hq4oN2k3iXWSaDLyB1I9-22">
          <mxGeometry relative="1" as="geometry" />
        </mxCell>
        <mxCell id="hq4oN2k3iXWSaDLyB1I9-43" value="图例说明" style="text;strokeColor=none;fillColor=none;fontSize=16;fontStyle=1;" vertex="1" parent="1">
          <mxGeometry x="1250" y="900" width="200" height="40" as="geometry" />
        </mxCell>
        <mxCell id="hq4oN2k3iXWSaDLyB1I9-44" value="红色虚线框：语音处理环节" style="rounded=1;dashed=1;strokeColor=#ff0000;fillColor=#fff2cc;fontSize=12;" vertex="1" parent="1">
          <mxGeometry x="1250" y="950" width="200" height="30" as="geometry" />
        </mxCell>
        <mxCell id="hq4oN2k3iXWSaDLyB1I9-45" value="绿色菱形：核身判断点" style="rhombus;fillColor=#00b050;strokeColor=#0070c0;fontSize=12;" vertex="1" parent="1">
          <mxGeometry x="1250" y="990" width="30" height="30" as="geometry" />
        </mxCell>
        <mxCell id="hq4oN2k3iXWSaDLyB1I9-46" value="核身判断点" style="text;strokeColor=none;fillColor=none;fontSize=12;" vertex="1" parent="1">
          <mxGeometry x="1290" y="990" width="120" height="30" as="geometry" />
        </mxCell>
        <mxCell id="hq4oN2k3iXWSaDLyB1I9-47" value="橙色箭头：全局指令路径" style="edgeStyle=orthogonalEdgeStyle;endArrow=block;strokeColor=#ff9900;strokeWidth=3;" edge="1" parent="1">
          <mxGeometry x="1250" y="1030" width="60" relative="1" as="geometry" />
        </mxCell>
        <mxCell id="hq4oN2k3iXWSaDLyB1I9-48" value="全局指令路径" style="text;strokeColor=none;fillColor=none;fontSize=12;" vertex="1" parent="1">
          <mxGeometry x="1320" y="1020" width="120" height="30" as="geometry" />
        </mxCell>
      </root>
    </mxGraphModel>
  </diagram>
</mxfile>
